<svg width="600" height="400" viewBox="0 0 600 400" fill="none" xmlns="http://www.w3.org/2000/svg">
  <defs>
    <linearGradient id="neuralBg" x1="0%" y1="0%" x2="100%" y2="100%">
      <stop offset="0%" style="stop-color:#0f172a;stop-opacity:1" />
      <stop offset="100%" style="stop-color:#1e293b;stop-opacity:1" />
    </linearGradient>
    <linearGradient id="nodeGradient" x1="0%" y1="0%" x2="100%" y2="100%">
      <stop offset="0%" style="stop-color:#00d4ff;stop-opacity:1" />
      <stop offset="100%" style="stop-color:#0ea5e9;stop-opacity:1" />
    </linearGradient>
    <linearGradient id="connectionGradient" x1="0%" y1="0%" x2="100%" y2="100%">
      <stop offset="0%" style="stop-color:#7916ff;stop-opacity:0.8" />
      <stop offset="100%" style="stop-color:#bf00ff;stop-opacity:0.4" />
    </linearGradient>
  </defs>
  
  <!-- Background -->
  <rect width="600" height="400" fill="url(#neuralBg)"/>
  
  <!-- Grid Pattern -->
  <defs>
    <pattern id="grid" width="20" height="20" patternUnits="userSpaceOnUse">
      <path d="M 20 0 L 0 0 0 20" fill="none" stroke="#334155" stroke-width="0.5" opacity="0.3"/>
    </pattern>
  </defs>
  <rect width="600" height="400" fill="url(#grid)"/>
  
  <!-- Neural Network Layers -->
  <!-- Input Layer -->
  <g id="inputLayer">
    <circle cx="100" cy="120" r="12" fill="url(#nodeGradient)" opacity="0.9"/>
    <circle cx="100" cy="160" r="12" fill="url(#nodeGradient)" opacity="0.9"/>
    <circle cx="100" cy="200" r="12" fill="url(#nodeGradient)" opacity="0.9"/>
    <circle cx="100" cy="240" r="12" fill="url(#nodeGradient)" opacity="0.9"/>
    <circle cx="100" cy="280" r="12" fill="url(#nodeGradient)" opacity="0.9"/>
    <text x="70" y="100" fill="#e2e8f0" font-family="Arial, sans-serif" font-size="12" font-weight="bold">Input</text>
  </g>
  
  <!-- Hidden Layer 1 -->
  <g id="hiddenLayer1">
    <circle cx="250" cy="100" r="10" fill="#7916ff" opacity="0.8"/>
    <circle cx="250" cy="140" r="10" fill="#7916ff" opacity="0.8"/>
    <circle cx="250" cy="180" r="10" fill="#7916ff" opacity="0.8"/>
    <circle cx="250" cy="220" r="10" fill="#7916ff" opacity="0.8"/>
    <circle cx="250" cy="260" r="10" fill="#7916ff" opacity="0.8"/>
    <circle cx="250" cy="300" r="10" fill="#7916ff" opacity="0.8"/>
    <text x="210" y="80" fill="#e2e8f0" font-family="Arial, sans-serif" font-size="12" font-weight="bold">Hidden 1</text>
  </g>
  
  <!-- Hidden Layer 2 -->
  <g id="hiddenLayer2">
    <circle cx="400" cy="120" r="10" fill="#bf00ff" opacity="0.8"/>
    <circle cx="400" cy="160" r="10" fill="#bf00ff" opacity="0.8"/>
    <circle cx="400" cy="200" r="10" fill="#bf00ff" opacity="0.8"/>
    <circle cx="400" cy="240" r="10" fill="#bf00ff" opacity="0.8"/>
    <circle cx="400" cy="280" r="10" fill="#bf00ff" opacity="0.8"/>
    <text x="360" y="100" fill="#e2e8f0" font-family="Arial, sans-serif" font-size="12" font-weight="bold">Hidden 2</text>
  </g>
  
  <!-- Output Layer -->
  <g id="outputLayer">
    <circle cx="520" cy="160" r="12" fill="#10b981" opacity="0.9"/>
    <circle cx="520" cy="200" r="12" fill="#10b981" opacity="0.9"/>
    <circle cx="520" cy="240" r="12" fill="#10b981" opacity="0.9"/>
    <text x="490" y="140" fill="#e2e8f0" font-family="Arial, sans-serif" font-size="12" font-weight="bold">Output</text>
  </g>
  
  <!-- Connections (Sample) -->
  <line x1="112" y1="120" x2="238" y2="100" stroke="url(#connectionGradient)" stroke-width="2" opacity="0.6"/>
  <line x1="112" y1="160" x2="238" y2="140" stroke="url(#connectionGradient)" stroke-width="3" opacity="0.8"/>
  <line x1="112" y1="200" x2="238" y2="180" stroke="url(#connectionGradient)" stroke-width="2" opacity="0.6"/>
  <line x1="112" y1="240" x2="238" y2="220" stroke="url(#connectionGradient)" stroke-width="1" opacity="0.4"/>
  
  <line x1="262" y1="140" x2="388" y2="160" stroke="url(#connectionGradient)" stroke-width="3" opacity="0.8"/>
  <line x1="262" y1="180" x2="388" y2="200" stroke="url(#connectionGradient)" stroke-width="2" opacity="0.6"/>
  <line x1="262" y1="220" x2="388" y2="240" stroke="url(#connectionGradient)" stroke-width="2" opacity="0.6"/>
  
  <line x1="412" y1="160" x2="508" y2="160" stroke="#10b981" stroke-width="3" opacity="0.8"/>
  <line x1="412" y1="200" x2="508" y2="200" stroke="#10b981" stroke-width="2" opacity="0.6"/>
  <line x1="412" y1="240" x2="508" y2="240" stroke="#10b981" stroke-width="2" opacity="0.6"/>
  
  <!-- Training Metrics Panel -->
  <rect x="50" y="320" width="500" height="60" rx="8" fill="#1e293b" stroke="#334155" stroke-width="1"/>
  <text x="70" y="340" fill="#e2e8f0" font-family="Arial, sans-serif" font-size="12" font-weight="bold">Training Metrics</text>
  
  <!-- Loss Graph -->
  <rect x="70" y="345" width="100" height="25" fill="#0f172a" rx="4"/>
  <polyline points="75,365 85,360 95,355 105,350 115,348 125,347 135,346 145,345 155,344 165,343" 
            fill="none" stroke="#ef4444" stroke-width="2"/>
  <text x="75" y="375" fill="#94a3b8" font-family="Arial, sans-serif" font-size="8">Loss: 0.023</text>
  
  <!-- Accuracy Graph -->
  <rect x="190" y="345" width="100" height="25" fill="#0f172a" rx="4"/>
  <polyline points="195,365 205,362 215,358 225,354 235,350 245,347 255,345 265,344 275,343 285,342" 
            fill="none" stroke="#10b981" stroke-width="2"/>
  <text x="195" y="375" fill="#94a3b8" font-family="Arial, sans-serif" font-size="8">Accuracy: 97.8%</text>
  
  <!-- Epoch Counter -->
  <rect x="310" y="345" width="80" height="25" fill="#0f172a" rx="4"/>
  <text x="320" y="360" fill="#60a5fa" font-family="Arial, sans-serif" font-size="12" font-weight="bold">Epoch: 150</text>
  
  <!-- Learning Rate -->
  <rect x="410" y="345" width="120" height="25" fill="#0f172a" rx="4"/>
  <text x="420" y="360" fill="#f59e0b" font-family="Arial, sans-serif" font-size="12" font-weight="bold">LR: 0.001</text>
  
  <!-- Animated Pulse Effect -->
  <circle cx="250" cy="180" r="15" fill="none" stroke="#7916ff" stroke-width="2" opacity="0.5">
    <animate attributeName="r" values="10;20;10" dur="2s" repeatCount="indefinite"/>
    <animate attributeName="opacity" values="0.8;0.2;0.8" dur="2s" repeatCount="indefinite"/>
  </circle>
</svg>